<?xml version="1.0" encoding="UTF-8" standalone="no"?>
<!-- Created with Inkscape (http://www.inkscape.org/) -->

<svg
   version="1.1"
   id="svg1"
   width="1570.9091"
   height="1178.1818"
   viewBox="0 0 1570.9091 1178.1818"
   sodipodi:docname="cliquelogo.svg"
   inkscape:version="1.3.2 (091e20e, 2023-11-25)"
   xmlns:inkscape="http://www.inkscape.org/namespaces/inkscape"
   xmlns:sodipodi="http://sodipodi.sourceforge.net/DTD/sodipodi-0.dtd"
   xmlns:xlink="http://www.w3.org/1999/xlink"
   xmlns="http://www.w3.org/2000/svg"
   xmlns:svg="http://www.w3.org/2000/svg">
  <defs
     id="defs1">
    <linearGradient
       id="linearGradient11"
       inkscape:collect="always">
      <stop
         style="stop-color:#c6ff04;stop-opacity:0.92571431;"
         offset="0"
         id="stop11" />
      <stop
         style="stop-color:#d0781c;stop-opacity:0.8742857;"
         offset="0.5"
         id="stop1" />
      <stop
         style="stop-color:#5b32d4;stop-opacity:1;"
         offset="1"
         id="stop12" />
    </linearGradient>
    <radialGradient
       inkscape:collect="always"
       xlink:href="#linearGradient11"
       id="radialGradient1"
       cx="786.43976"
       cy="597.97345"
       fx="786.43976"
       fy="597.97345"
       r="791.59332"
       gradientTransform="matrix(1,0,0,0.74427927,0,152.91421)"
       gradientUnits="userSpaceOnUse" />
  </defs>
  <sodipodi:namedview
     id="namedview1"
     pagecolor="#505050"
     bordercolor="#ffffff"
     borderopacity="1"
     inkscape:showpageshadow="0"
     inkscape:pageopacity="0"
     inkscape:pagecheckerboard="1"
     inkscape:deskcolor="#505050"
     inkscape:zoom="0.58754423"
     inkscape:cx="759.94278"
     inkscape:cy="601.65683"
     inkscape:window-width="1440"
     inkscape:window-height="900"
     inkscape:window-x="0"
     inkscape:window-y="0"
     inkscape:window-maximized="0"
     inkscape:current-layer="layer1" />
  <g
     inkscape:groupmode="layer"
     id="layer2"
     inkscape:label="BaseLayer">
    <rect
       style="opacity:1;fill:#ffffff;fill-opacity:1;fill-rule:nonzero;stroke:#000000;stroke-opacity:1"
       id="rect15"
       width="1578.42"
       height="1178.2222"
       x="0"
       y="4.9714017" />
  </g>
  <g
     inkscape:groupmode="layer"
     id="layer1"
     inkscape:label="Background"
     style="mix-blend-mode:normal;fill:#000000;fill-opacity:1;fill-rule:nonzero;stroke:#000000;stroke-opacity:1">
    <rect
       style="fill:url(#radialGradient1);fill-opacity:1;fill-rule:nonzero;stroke:#000000;stroke-opacity:1;opacity:1"
       id="rect5"
       width="1582.1866"
       height="1177.333"
       x="-4.6535425"
       y="9.3069506" />
  </g>
  <g
     inkscape:groupmode="layer"
     inkscape:label="Image"
     id="g1">
    <path
       style="fill:#ffffff;fill-opacity:1"
       d="m 860.83845,1017.0376 c -6.84497,-3.2378 -20.03244,-17.61735 -16.15687,-17.61735 5.64616,0 11.85074,-1.3744 16.62538,-3.6829 l 4.36364,-2.1097 4.10807,4.2022 c 10.13041,10.36235 3.31513,25.00475 -8.94022,19.20775 z m -45.58487,-27.78465 c -44.11769,-11.8487 -50.3967,-69.9728 -9.92976,-91.9187 10.27487,-5.5722 16.08348,-5.2321 19.98707,1.1703 4.12897,6.772 0.33806,14.3536 -8.45521,16.9099 -5.58408,1.6233 -13.15009,9.0465 -15.57247,15.2785 -11.12146,28.6119 24.61602,52.2516 46.24156,30.5879 6.92854,-6.9407 6.8727,-6.6565 6.87582,-34.9993 0.003,-23.3434 0.081,-24.8078 1.4479,-27.0498 4.394,-7.2067 14.17766,-6.8597 17.98655,0.638 1.94303,3.8247 2.70344,49.3417 0.9338,55.8958 -6.63528,24.5745 -34.44298,40.221 -59.51526,33.4874 z m 127.43478,0.01 c -14.0491,-3.6838 -25.45846,-12.8507 -32.38643,-26.021 -2.85709,-5.4314 -3.05009,-65.2075 -0.22276,-68.9929 5.09728,-6.8245 14.1874,-6.5184 17.84249,0.6009 1.2806,2.4944 1.3893,4.6097 1.4384,28 0.062,29.378 0.2956,31.8791 3.336,35.6606 11.1326,13.8461 33.3819,14.1813 44.1943,0.6657 2.2348,-2.7935 2.2348,-2.7935 2.5984,-32.857 0.4023,-33.2591 0.1691,-31.6935 5.2898,-35.5166 4.5158,-3.3715 12.4337,-0.8558 14.6368,4.6504 1.61964,4.0478 1.72804,59.9706 0.1279,65.9815 -5.4552,20.4923 -33.1447,34.0454 -56.8549,27.8284 z m -313.48932,-0.046 c -3.32868,-1.0246 -6.61711,-5.1067 -7.13142,-8.8526 -0.72866,-5.3073 -1.67465,-78.6319 -1.04304,-80.8472 2.68014,-9.4003 14.79355,-10.91 19.35351,-2.4121 1.20098,2.2381 1.79641,19.102 2.31193,65.4787 l 0.0715,6.4319 19.81818,-0.2501 c 19.54177,-0.2466 19.85514,-0.2271 22.46803,1.3977 6.878,4.2772 6.44038,13.6901 -0.83413,17.9416 -2.86512,1.6745 -50.08601,2.6291 -55.01455,1.1121 z m -84.98298,-1.4885 c -48.77722,-7.3643 -55.40668,-74.3504 -8.97062,-90.642 25.88468,-9.0813 64.33099,12.4323 49.22062,27.5426 -5.00081,5.0008 -9.17916,4.2509 -18.59014,-3.3366 -16.70016,-13.4644 -40.56895,-1.7266 -40.56895,19.9503 0,24.4524 26.0324,34.3641 44.15098,16.8104 10.4228,-10.0979 21.2333,-8.1889 21.06894,3.7206 -0.18977,13.7498 -27.13315,28.8501 -46.31083,25.9547 z m 178.76678,-0.6355 c -5.19914,-3.1702 -4.9486,-0.8234 -4.9486,-46.3534 0,-40.9279 0,-40.9279 2.67524,-43.6028 4.77479,-4.774 13.95979,-4.0673 17.34845,1.3349 2.07251,3.3041 1.49429,79.7294 -0.63716,84.216 -2.53168,5.3291 -9.45725,7.4422 -14.43793,4.4053 z m 364.14236,-1.9553 c -1.4,-0.1232 -12.5273,-0.3137 -24.7273,-0.4232 -34.7714,-0.312 -32.4768,3.3842 -31.6661,-51.0074 0.5786,-38.8152 0.4182,-37.6168 5.4946,-41.0378 3.5046,-2.3618 59.2317,-2.2517 62.7358,0.124 5.1576,3.4967 6.6236,9.4731 3.5454,14.4537 -2.9255,4.7336 -3.9174,4.9049 -28.4014,4.9049 h -21.8901 v 7.1617 7.1617 l 15.8182,0.5154 c 19.3826,0.6315 23.4545,2.4635 23.4545,10.5528 0,8.936 -4.4822,10.972 -24.1541,10.972 h -15.1186 v 7.1691 7.1691 l 4.4703,0.4673 c 2.4587,0.257 12.0314,0.4677 21.2727,0.4684 18.9842,0 20.825,0.4057 23.1649,5.0897 3.7758,7.5582 -1.7463,17.1197 -9.59,16.6051 -1.0249,-0.067 -3.0088,-0.2232 -4.4088,-0.3465 z M 799.06729,823.39255 c -17.83224,-2.9098 -19.63233,-9.1132 -19.60101,-67.5484 0.0259,-48.387 -0.25997,-44.8185 3.27708,-40.9034 7.23049,8.0033 19.74862,12.4715 35.65451,12.7266 l 7.27273,0.1166 v 38.5454 c 0,44.2102 0.13394,43.1329 -6.22843,50.0944 -5.34046,5.8433 -12.4242,8.2661 -20.37488,6.9688 z m -86.91556,-11.2645 c -14.75885,-3.2668 -44.93225,-15.9188 -65.75385,-27.5712 -56.03615,-31.3596 -103.1722,-81.0932 -128.59543,-135.682 -7.08944,-15.2225 -8.43668,-18.2446 -11.18551,-25.0909 -4.44057,-11.0599 -8.06328,-22.4099 -11.83875,-37.0909 -3.8385,-14.9262 -6.11333,-26.8056 -8.35608,-43.6364 -0.37311,-2.8 -1.09496,-8.0364 -1.60411,-11.6364 -1.2017,-8.4967 -1.17178,-45.3325 0.0452,-55.6363 5.04298,-42.69764 16.63202,-82.3708 33.77886,-115.6364 13.38849,-25.97423 22.85239,-39.63456 46.35474,-66.90909 28.31746,-32.86247 70.78831,-64.15689 109.03745,-80.34365 2.6,-1.1003 5.38182,-2.28525 6.18182,-2.63322 63.69273,-27.70408 146.99743,-32.52503 209.81817,-12.14245 38.04722,12.34467 75.17552,31.59743 104.72722,54.30603 33.26884,25.56486 62.39444,58.91721 82.00394,93.9042 6.182,11.02999 7.7533,13.98774 10.8179,20.36363 11.3604,23.63576 22.6444,59.78961 27.4655,88 0.9912,5.8 2.217,13.32725 2.724,16.72725 1.2981,8.706 1.3144,55.3661 0.023,65.0909 -0.5313,4 -1.4646,11.0364 -2.074,15.6364 -2.0449,15.4353 -4.1731,24.6331 -10.4408,45.1253 -5.0803,16.61 -9.2409,28.2467 -13.4325,37.5691 -7.9303,17.6377 -10.7073,23.0564 -19.8601,38.7522 -6.9699,11.9523 -15.611,23.6022 -33.1987,44.7583 -25.6016,30.796 -74.83454,65.8327 -114.93707,81.7951 -0.8,0.3184 -2.6,1.0652 -4,1.6595 -2.16643,0.9196 -11.13912,4.1782 -17.45455,6.3388 -1,0.3422 -3.45455,0.9641 -5.45455,1.3821 -2,0.418 -5.17219,1.0965 -7.04932,1.5079 -29.91102,6.5555 -50.91512,-28.0432 -30.2739,-49.8682 4.67818,-4.9465 11.04986,-8.8276 20.64054,-12.5725 47.32371,-18.4784 82.46081,-41.4834 104.54471,-68.4476 2.4571,-3 6.766,-8.1166 9.5754,-11.3702 14.86434,-17.2146 34.78154,-54.239 44.32874,-82.4035 10.4539,-30.8391 13.5066,-49.0631 13.5066,-80.6314 0,-27.9933 -1.2395,-37.1338 -9.0405,-66.67047 -21.2733,-80.54581 -91.11654,-152.14493 -170.23226,-174.51188 -2.4,-0.67851 -6.98182,-2.17339 -10.18182,-3.32195 -29.12848,-10.45501 -62.8295,-11.18417 -112,-2.42324 -24.89837,4.43625 -58.50086,16.73449 -72.4759,26.5256 -1.06175,0.74387 -2.14616,1.3525 -2.40979,1.3525 -0.74129,0 -19.07365,12.11241 -23.9982,15.85591 -14.36992,10.92359 -34.60666,31.03738 -45.5115,45.23499 -1.38253,1.8 -2.71545,3.43637 -2.96204,3.63637 -1.10098,0.89297 -15.18802,21.42109 -15.18802,22.13251 0,0.14535 -1.33758,2.46597 -2.97239,5.15693 -3.07969,5.06927 -10.94898,20.80205 -13.26925,26.52874 -0.72931,1.79999 -1.59778,3.92727 -1.92993,4.72727 -1.91719,4.61754 -4.79029,12.34256 -6.35647,17.09091 -2.6314,7.97786 -3.72705,12.00491 -6.23292,22.90909 -2.04765,8.91027 -3.74975,18.70372 -4.8631,27.98092 -0.9481,7.9003 -0.96333,47.9304 -0.0208,54.7889 0.3953,2.8766 1.084,7.8484 1.53045,11.0484 2.13988,15.338 7.96521,37.2365 13.73611,51.6363 1.28243,3.2 2.82959,7.2909 3.43813,9.0909 1.58075,4.6758 6.83939,15.4739 11.57962,23.7778 2.23898,3.9222 4.72382,8.2768 5.52185,9.6768 1.63567,2.8695 14.932,22.099 18.341,26.5253 11.45519,14.8736 24.00251,27.888 38.58865,40.0254 2.4,1.9971 4.52727,3.8015 4.72727,4.0098 6.42649,6.6934 39.4868,26.0313 54.90909,32.1178 2,0.7893 4.61818,1.8633 5.81818,2.3865 2.25432,0.983 7.05822,2.794 14.43511,5.4417 25.44358,9.1321 33.42534,36.8138 15.74671,54.6113 -7.58176,7.6327 -18.98551,11.2151 -28.7916,9.0445 z m 65.88251,-121.5024 c -1,-0.1583 -4.10909,-0.6453 -6.90909,-1.0823 -12.84638,-2.0045 -28.55687,-7.0264 -40.72728,-13.0185 -47.38828,-23.3315 -78.11636,-63.4566 -89.1227,-116.3773 -0.71834,-3.454 -1.9975,-28.2287 -2.1122,-40.9091 -0.0378,-4.1818 -0.0378,-4.1818 -5.31055,-4.1889 -25.86366,-0.035 -30.30722,-35.9721 -5.27273,-42.643 21.41603,-5.7068 38.90909,11.6865 38.90909,38.6872 v 2.5083 h 134.46288 134.4629 l 0.4949,-3.3005 c 4.4187,-29.4659 33.1611,-47.02467 48.9454,-29.9008 12.4596,13.5171 3.6486,33.6248 -15.1274,34.5225 l -6.3174,0.302 -0.4198,20.4612 c -0.5119,24.9505 -3.2338,39.4827 -10.4235,55.6516 -23.0981,51.9454 -58.9973,82.4833 -114.44162,97.3506 -6.54633,1.7554 -52.94579,3.2266 -61.0909,1.937 z M 692.24196,409.78391 c 0.0211,-48.35247 0.21587,-60.24978 1.04319,-63.71325 7.01112,-29.35127 44.58927,-31.09881 54.53696,-2.53619 0.94784,2.72151 1.10151,11.63644 1.11063,64.43126 l 0.0106,61.27272 H 720.5797 692.21607 Z m 164.33773,-1.51625 c 0,-59.63369 0.0329,-61.07104 1.50067,-65.54206 6.79538,-20.69977 30.75225,-26.55096 46.20566,-11.28521 7.60036,7.50806 7.17448,3.18563 7.39643,75.07079 l 0.19367,62.72727 H 884.2279 856.57969 Z"
       id="path3" />
  </g>
</svg>
